<svg width="180" height="180" viewBox="0 0 180 180" fill="none" xmlns="http://www.w3.org/2000/svg">
<path d="M160.958 50.8462C146.131 54.1532 135.347 65.8012 132.426 79.7273C147.252 76.4203 158.037 64.7723 160.958 50.8462Z" fill="#1B5A96" stroke="#FB9100" stroke-width="1.37791" stroke-linecap="round" stroke-linejoin="round"/>
<path d="M146.701 27.8994C146.701 27.8994 131.709 64.8459 133.638 100.212" stroke="#FB9100" stroke-width="1.37791" stroke-linecap="round" stroke-linejoin="round"/>
<path d="M144.845 16.1782C150.045 14.3777 155.722 17.1152 157.541 22.3145C159.359 27.5138 156.604 33.1908 151.386 35.0097C146.168 36.8285 140.51 34.0727 138.691 28.8734C136.89 23.674 139.646 17.997 144.845 16.1782Z" fill="#1B5A96" stroke="#FB9100" stroke-width="1.37791" stroke-linecap="round" stroke-linejoin="round"/>
<path d="M27.9617 53.0874C27.9617 53.0874 43.082 77.8715 45.7092 137.655" stroke="#FB9100" stroke-width="1.37791" stroke-linecap="round" stroke-linejoin="round"/>
<path d="M29.5968 46.1431C34.2266 47.227 37.111 51.8752 36.0087 56.505C34.9064 61.1348 30.2766 64.0192 25.6468 62.9169C21.017 61.8145 18.1326 57.1847 19.2349 52.555C20.3372 47.9252 24.967 45.0407 29.5968 46.1431Z" fill="#1B5A96" stroke="#FB9100" stroke-width="1.37791" stroke-linecap="round" stroke-linejoin="round"/>
<path d="M152.194 86.3599H23.6626V173.205H152.194V86.3599Z" fill="#FB9100" stroke="#FB9100" stroke-width="1.37791" stroke-linecap="round" stroke-linejoin="round"/>
<path d="M23.6626 86.3599H152.176L87.6529 23.9497L23.6626 86.3599Z" fill="#1B5A96" stroke="#1B5A96" stroke-width="1.37791" stroke-linecap="round" stroke-linejoin="round"/>
<path d="M133.694 109.123L87.8366 154.686L42.145 107.414V45.7388H133.694V109.123Z" fill="#FFFDF6" stroke="#FB9100" stroke-width="1.37791" stroke-linecap="round" stroke-linejoin="round"/>
<path d="M152.176 173.205H23.6626V86.3599L87.9285 152.573L152.176 86.3599V173.205Z" fill="#1B5A96" stroke="#1B5A96" stroke-width="1.37791" stroke-linecap="round" stroke-linejoin="round"/>
<path d="M65.0183 114.781C75.4904 127.697 78.7056 139.749 81.9942 151.434" stroke="#FB9100" stroke-width="1.37791" stroke-linecap="round" stroke-linejoin="round"/>
<path d="M23.6626 173.205H152.194L99.4845 120.495C93.1094 114.12 82.7659 114.12 76.3724 120.495L23.6626 173.205Z" fill="#FB9100" stroke="#FB9100" stroke-width="1.37791" stroke-linecap="round" stroke-linejoin="round"/>
<path d="M30.7727 103.152C45.7276 100.543 60.1682 107.175 68.1784 118.934C53.2235 121.542 38.8013 114.91 30.7727 103.152Z" fill="#1B5A96" stroke="#FB9100" stroke-width="1.37791" stroke-linecap="round" stroke-linejoin="round"/>
<path d="M41.3916 16.6559C47.2891 16.6559 52.0475 21.4143 52.0475 27.3117C52.0475 21.4143 56.8059 16.6559 62.7033 16.6559C56.8059 16.6559 52.0475 11.8791 52.0475 6C52.0475 11.8975 47.2707 16.6559 41.3916 16.6559Z" fill="#FFFDF6" stroke="#FB9100" stroke-width="1.37791" stroke-linecap="round" stroke-linejoin="round"/>
<path d="M59.3601 81.8721H62.1201V89.0001H63.6801V81.8721H66.4161V80.6001H59.3601V81.8721ZM67.4327 89.0001H68.9087V85.7841C68.9087 84.5721 69.5447 83.8041 70.5527 83.8041C71.5367 83.8041 72.0287 84.3561 72.0287 85.3641V89.0001H73.4927V84.9561C73.4927 83.4801 72.4967 82.6161 71.2247 82.6161C70.1087 82.6161 69.3167 83.2161 68.9807 84.3081H68.9087V80.6001H67.4327V89.0001ZM76.8254 89.1921C78.0734 89.1921 79.0454 88.4601 79.3094 87.4401H79.3694L79.3934 89.0001H80.8094V84.8361C80.8094 83.4321 79.7294 82.6161 77.9174 82.6161C76.1174 82.6161 74.9534 83.5281 74.7974 85.0521H76.2614C76.3814 84.2121 77.0054 83.7561 77.9054 83.7561C79.0094 83.7561 79.3694 84.3321 79.3694 84.8001C79.3694 85.4361 78.9014 85.6881 77.7734 85.6881H77.0174C75.5174 85.6881 74.7374 86.3721 74.7374 87.4761C74.7374 88.5921 75.6254 89.1921 76.8254 89.1921ZM76.2374 87.3441C76.2374 86.8161 76.5854 86.5041 77.2214 86.5041H77.7374C78.6974 86.5041 79.1894 86.2401 79.3094 85.6641H79.3694V86.2761C79.3694 87.2241 78.5534 88.1841 77.3414 88.1841C76.5974 88.1841 76.2374 87.8721 76.2374 87.3441ZM82.3976 89.0001H83.8736V85.7841C83.8736 84.5721 84.5096 83.8041 85.5176 83.8041C86.5016 83.8041 86.9936 84.3561 86.9936 85.3641V89.0001H88.4576V84.9561C88.4576 83.4801 87.4616 82.6161 86.1896 82.6161C85.0736 82.6161 84.2816 83.2161 83.9456 84.3081H83.8736L83.8136 82.8081H82.3976V89.0001ZM90.0382 89.0001H91.4782V87.2361L92.3302 86.4321H92.6062C93.2062 86.4321 93.5542 86.7561 93.8182 87.3561L94.5622 89.0001H96.0862L95.0062 86.6481C94.6702 85.9161 94.2262 85.4721 93.3622 85.4121L93.3502 85.3521C93.6862 85.0521 94.2742 84.5361 94.8262 84.0081L96.0862 82.8081H94.3702L92.8222 84.2841C92.3902 84.7041 91.8742 85.2561 91.5022 85.6761L91.4422 85.6521C91.4662 84.9921 91.4782 84.2841 91.4782 83.5281V80.6001H90.0382V89.0001ZM100.768 91.3281C101.968 91.3281 102.688 90.6681 103.252 89.2161L105.712 82.8081H104.164L103.396 84.9801C103.12 85.8081 102.844 86.6241 102.556 87.6321H102.496C102.22 86.6361 101.944 85.7841 101.68 84.9801L100.948 82.8081H99.3525L101.644 88.9761L101.488 89.3721C101.236 89.9721 100.96 90.1641 100.36 90.1641C100.144 90.1641 99.8925 90.1281 99.5925 90.0681V91.1721C100.024 91.2681 100.42 91.3281 100.768 91.3281ZM109.457 89.1921C111.269 89.1921 112.781 87.9201 112.781 85.8801C112.781 83.8881 111.269 82.6161 109.457 82.6161C107.645 82.6161 106.121 83.8881 106.121 85.8801C106.121 87.9201 107.645 89.1921 109.457 89.1921ZM107.609 85.8801C107.609 84.5241 108.341 83.7681 109.457 83.7681C110.573 83.7681 111.305 84.5241 111.305 85.8801C111.305 87.2721 110.573 88.0401 109.457 88.0401C108.341 88.0401 107.609 87.2721 107.609 85.8801ZM116.294 89.1921C117.41 89.1921 118.214 88.5921 118.55 87.5001H118.622L118.67 89.0001H120.086V82.8081H118.622V86.0241C118.622 87.2361 117.986 88.0041 116.978 88.0041C116.054 88.0041 115.49 87.3921 115.49 86.3961V82.8081H114.026V86.8521C114.026 88.3281 115.022 89.1921 116.294 89.1921Z" fill="#1B5A96"/>
</svg>
